<?xml version="1.0" encoding="UTF-8"?>
<svg id="Layer_2" data-name="Layer 2" xmlns="http://www.w3.org/2000/svg" viewBox="0 0 471.25 203.7">
  <defs>
    <style>
      .cls-1 {
        fill: #fff;
      }

      .cls-2 {
        fill: #37b34a;
      }
    </style>
  </defs>
  <g id="Layer_1-2" data-name="Layer 1">
    <g>
      <path class="cls-1" d="M287.68,69.65V203.29h-112.63v-2.46c0-15.63,.03-31.25-.04-46.88,0-1.74,.56-2.72,2.03-3.6,12.06-7.26,24.07-14.6,36.09-21.92,.27-.16,.49-.39,.98-.78-4.62-2.83-9.11-5.58-13.6-8.32-8.01-4.88-16.03-9.74-24.01-14.67-.64-.4-1.37-1.3-1.38-1.97-.07-10.76-.03-21.52,0-32.29,0-.22,.15-.44,.27-.76h112.3Zm-75.75,26.07c.78,.59,1,.79,1.24,.94,9.03,5.49,18.05,11.01,27.12,16.45,1.35,.81,2.06,1.62,2.03,3.33-.11,7.57-.07,15.14-.03,22.72,0,1.31-.31,2.11-1.54,2.85-12.64,7.67-25.24,15.41-37.82,23.19-.72,.45-1.67,1.27-1.71,1.96-.18,3.32-.08,6.65-.08,10.1h60.2V95.72h-49.43Z"/>
      <path class="cls-1" d="M356.85,69.63h108.54V203.4h-25.93c0-1.24,0-2.41,0-3.58,0-8.45,.03-16.9-.05-25.36,0-.87-.46-2.14-1.11-2.52-6.59-3.84-13.26-7.53-20.25-11.45v42.86c-.94,.06-1.62,.14-2.31,.15-5.1,.01-10.24-.38-15.3,.1-6.23,.6-11.4-1.41-16.58-4.51-8.25-4.95-16.75-9.49-25.08-14.31-.88-.51-1.95-1.66-1.97-2.53-.14-9.24-.09-18.49-.09-28.3,11.77,6.55,23.24,12.94,35.02,19.49,.08-.91,.18-1.57,.18-2.23,.01-7.81-.06-15.63,.06-23.44,.03-1.73-.66-2.57-2.03-3.33-10.42-5.82-20.81-11.68-31.21-17.52-1.22-.68-2.07-1.36-2.06-3.07,.08-17.46,.05-34.93,.05-52.39,0-.54,.07-1.08,.12-1.82Zm82.53,26.2h-57.36c0,3.46,.25,6.74-.07,9.97-.31,3.03,.98,4.44,3.48,5.83,14.18,7.87,28.26,15.94,42.38,23.92,3.77,2.13,7.56,4.21,11.57,6.43v-46.16Z"/>
      <path class="cls-1" d="M127.29,95.54H47.7v-25.86h105.69V203.37h-25.92v-2.48c0-11.16-.03-22.33,.03-33.49,0-1.46-.37-2.27-1.74-2.92-16.52-7.86-33.01-15.78-49.51-23.67-.7-.34-1.43-.62-2.39-1.03-.08,.88-.19,1.55-.19,2.22-.01,6.7,.05,13.4-.05,20.09-.02,1.69,.54,2.55,2.07,3.25,5.92,2.73,11.8,5.55,17.63,8.47,.8,.4,1.77,1.5,1.78,2.29,.13,8.69,.08,17.38,.07,26.07,0,.3-.1,.6-.2,1.16-3.5-1.63-6.87-3.16-10.21-4.76-11.83-5.67-23.65-11.38-35.49-17.03-1.11-.53-1.74-1.04-1.74-2.44,.05-22.4,.04-44.81,.04-67.21,0-.31,.06-.61,.11-1.07,.74-.05,1.43-.13,2.12-.13,4.31-.01,8.65,.34,12.91-.08,7.77-.78,14.57,1.51,21.4,4.97,13.62,6.9,27.47,13.34,41.23,19.96,.56,.27,1.16,.48,1.94,.8v-40.79Z"/>
      <path class="cls-1" d="M271.6,10.23l-45.05,26H120.08c-16.42,0-32.85,.05-49.28-.05-2.72-.02-5.1,.58-7.45,1.9-11.59,6.5-23.18,12.96-34.82,19.36-1.76,.98-2.55,2.02-2.55,4.23,.09,46.15,.07,92.3,.07,138.44v3.24H.15c-.05-.8-.12-1.64-.12-2.46C.03,149.14,.03,97.41,0,45.68c0-1.71,.48-2.65,2.05-3.53,16.86-9.28,33.67-18.66,50.48-28,.34-.19,.72-.34,1.04-.58,4.02-3.03,8.59-3.44,13.51-3.41,26.31,.15,52.62,.07,78.94,.07h125.58Z"/>
      <rect class="cls-1" x="335.07" y="10.16" width="136.18" height="26.02"/>
      <path class="cls-1" d="M309.44,69.66h25.63V203.33h-25.63V69.66Z"/>
      <path class="cls-2" d="M265.09,60.55v-3.59c0-8.05-.05-16.09,.06-24.14,.01-.98,.64-2.39,1.42-2.84,16.83-9.83,33.73-19.55,50.61-29.28,.39-.22,.83-.36,1.62-.7,0,1.44,0,2.6,0,3.76,0,8.05,.04,16.09-.06,24.14-.01,.91-.59,2.23-1.32,2.66-17.04,9.94-34.14,19.78-51.24,29.63-.2,.11-.44,.15-1.1,.36Z"/>
    </g>
  </g>
</svg>